STARTFONT 2.1
FONT -Adobe-Helvetica-Bold-R-Normal--12-120-75-75-P-70-ISO8859-2
SIZE 12 75 75
FONTBOUNDINGBOX 14 15 -1 -3
COMMENT $XConsortium: helvB12.bdf,v 1.13 95/01/26 18:01:34 gildea Exp $
COMMENT 
COMMENT +
COMMENT  Copyright 1984-1989, 1994 Adobe Systems Incorporated.
COMMENT  Copyright 1988, 1994 Digital Equipment Corporation.
COMMENT
COMMENT  Adobe is a trademark of Adobe Systems Incorporated which may be
COMMENT  registered in certain jurisdictions.
COMMENT  Permission to use these trademarks is hereby granted only in
COMMENT  association with the images described in this file.
COMMENT
COMMENT  Permission to use, copy, modify, distribute and sell this software
COMMENT  and its documentation for any purpose and without fee is hereby
COMMENT  granted, provided that the above copyright notices appear in all
COMMENT  copies and that both those copyright notices and this permission
COMMENT  notice appear in supporting documentation, and that the names of
COMMENT  Adobe Systems and Digital Equipment Corporation not be used in
COMMENT  advertising or publicity pertaining to distribution of the software
COMMENT  without specific, written prior permission.  Adobe Systems and
COMMENT  Digital Equipment Corporation make no representations about the
COMMENT  suitability of this software for any purpose.  It is provided "as
COMMENT  is" without express or implied warranty.
COMMENT -
COMMENT  
COMMENT  Translation to ISO8859-2 by Cub Soft;  Petr.Kolar@vslib.cz
COMMENT  
STARTPROPERTIES 28
FOUNDRY "Adobe"
FAMILY_NAME "Helvetica"
WEIGHT_NAME "Bold"
SLANT "R"
SETWIDTH_NAME "Normal"
ADD_STYLE_NAME ""
PIXEL_SIZE 12
POINT_SIZE 120
RESOLUTION_X 75
RESOLUTION_Y 75
SPACING "P"
AVERAGE_WIDTH 70
CHARSET_REGISTRY "ISO8859"
CHARSET_ENCODING "2"
CAP_HEIGHT 9
X_HEIGHT 7
FONT_ASCENT 11
FONT_DESCENT 3
FACE_NAME "Helvetica Bold"

STARTCHAR space
ENCODING 32
SWIDTH 278 0
DWIDTH 4 0
BBX 1 1 0 0
BITMAP
00
ENDCHAR
STARTCHAR exclam
ENCODING 33
SWIDTH 333 0
DWIDTH 4 0
BBX 2 9 1 0
BITMAP
c0
c0
c0
c0
c0
80
00
c0
c0
ENDCHAR
STARTCHAR quotedbl
ENCODING 34
SWIDTH 474 0
DWIDTH 5 0
BBX 3 3 1 6
BITMAP
a0
a0
a0
ENDCHAR
STARTCHAR numbersign
ENCODING 35
SWIDTH 556 0
DWIDTH 8 0
BBX 7 8 0 0
BITMAP
14
14
7e
28
28
fc
50
50
ENDCHAR
STARTCHAR dollar
ENCODING 36
SWIDTH 556 0
DWIDTH 7 0
BBX 6 11 0 -2
BITMAP
10
78
d4
d0
78
1c
94
d4
78
10
10
ENDCHAR
STARTCHAR percent
ENCODING 37
SWIDTH 889 0
DWIDTH 12 0
BBX 11 9 0 0
BITMAP
7100
db00
da00
7400
0400
09c0
0b60
1b60
11c0
ENDCHAR
STARTCHAR ampersand
ENCODING 38
SWIDTH 722 0
DWIDTH 9 0
BBX 9 9 0 0
BITMAP
3800
6c00
6c00
3800
7900
cf00
c600
cf00
7980
ENDCHAR
STARTCHAR apostrophe
ENCODING 39
SWIDTH 278 0
DWIDTH 4 0
BBX 2 3 1 6
BITMAP
c0
40
80
ENDCHAR
STARTCHAR parenleft
ENCODING 40
SWIDTH 333 0
DWIDTH 6 0
BBX 4 12 1 -3
BITMAP
30
60
60
c0
c0
c0
c0
c0
c0
60
60
30
ENDCHAR
STARTCHAR parenright
ENCODING 41
SWIDTH 333 0
DWIDTH 6 0
BBX 4 12 1 -3
BITMAP
c0
60
60
30
30
30
30
30
30
60
60
c0
ENDCHAR
STARTCHAR asterisk
ENCODING 42
SWIDTH 389 0
DWIDTH 6 0
BBX 5 4 0 5
BITMAP
20
f8
70
50
ENDCHAR
STARTCHAR plus
ENCODING 43
SWIDTH 584 0
DWIDTH 7 0
BBX 6 5 0 1
BITMAP
30
30
fc
30
30
ENDCHAR
STARTCHAR comma
ENCODING 44
SWIDTH 278 0
DWIDTH 4 0
BBX 2 4 1 -2
BITMAP
c0
c0
40
80
ENDCHAR
STARTCHAR minus
ENCODING 45
SWIDTH 584 0
DWIDTH 8 0
BBX 5 1 1 3
BITMAP
f8
ENDCHAR
STARTCHAR period
ENCODING 46
SWIDTH 278 0
DWIDTH 4 0
BBX 2 2 1 0
BITMAP
c0
c0
ENDCHAR
STARTCHAR slash
ENCODING 47
SWIDTH 278 0
DWIDTH 4 0
BBX 4 9 0 0
BITMAP
30
30
20
60
60
40
40
c0
c0
ENDCHAR
STARTCHAR zero
ENCODING 48
SWIDTH 556 0
DWIDTH 7 0
BBX 6 9 0 0
BITMAP
78
cc
cc
cc
cc
cc
cc
cc
78
ENDCHAR
STARTCHAR one
ENCODING 49
SWIDTH 556 0
DWIDTH 7 0
BBX 4 9 0 0
BITMAP
30
f0
30
30
30
30
30
30
30
ENDCHAR
STARTCHAR two
ENCODING 50
SWIDTH 556 0
DWIDTH 7 0
BBX 6 9 0 0
BITMAP
78
cc
0c
18
30
60
c0
c0
fc
ENDCHAR
STARTCHAR three
ENCODING 51
SWIDTH 556 0
DWIDTH 7 0
BBX 6 9 0 0
BITMAP
78
cc
0c
38
0c
0c
0c
cc
78
ENDCHAR
STARTCHAR four
ENCODING 52
SWIDTH 556 0
DWIDTH 7 0
BBX 7 9 0 0
BITMAP
0c
1c
2c
2c
4c
8c
fe
0c
0c
ENDCHAR
STARTCHAR five
ENCODING 53
SWIDTH 556 0
DWIDTH 7 0
BBX 6 9 0 0
BITMAP
7c
60
c0
f8
0c
0c
cc
cc
78
ENDCHAR
STARTCHAR six
ENCODING 54
SWIDTH 556 0
DWIDTH 7 0
BBX 6 9 0 0
BITMAP
78
cc
c0
c0
f8
cc
cc
cc
78
ENDCHAR
STARTCHAR seven
ENCODING 55
SWIDTH 556 0
DWIDTH 7 0
BBX 6 9 0 0
BITMAP
fc
0c
18
18
30
30
30
60
60
ENDCHAR
STARTCHAR eight
ENCODING 56
SWIDTH 556 0
DWIDTH 7 0
BBX 6 9 0 0
BITMAP
78
cc
cc
78
cc
cc
cc
cc
78
ENDCHAR
STARTCHAR nine
ENCODING 57
SWIDTH 556 0
DWIDTH 7 0
BBX 6 9 0 0
BITMAP
78
cc
cc
cc
7c
0c
0c
cc
78
ENDCHAR
STARTCHAR colon
ENCODING 58
SWIDTH 333 0
DWIDTH 4 0
BBX 2 7 1 0
BITMAP
c0
c0
00
00
00
c0
c0
ENDCHAR
STARTCHAR semicolon
ENCODING 59
SWIDTH 333 0
DWIDTH 4 0
BBX 2 9 1 -2
BITMAP
c0
c0
00
00
00
c0
c0
40
80
ENDCHAR
STARTCHAR less
ENCODING 60
SWIDTH 584 0
DWIDTH 7 0
BBX 5 5 1 1
BITMAP
18
70
c0
70
18
ENDCHAR
STARTCHAR equal
ENCODING 61
SWIDTH 584 0
DWIDTH 7 0
BBX 6 3 0 2
BITMAP
fc
00
fc
ENDCHAR
STARTCHAR greater
ENCODING 62
SWIDTH 584 0
DWIDTH 7 0
BBX 5 5 1 1
BITMAP
c0
70
18
70
c0
ENDCHAR
STARTCHAR question
ENCODING 63
SWIDTH 611 0
DWIDTH 8 0
BBX 6 9 1 0
BITMAP
78
cc
cc
18
30
30
00
30
30
ENDCHAR
STARTCHAR at
ENCODING 64
SWIDTH 975 0
DWIDTH 12 0
BBX 10 10 1 -1
BITMAP
1f00
6080
4040
8d40
9240
a240
a680
9b00
4000
3e00
ENDCHAR
STARTCHAR A
ENCODING 65
SWIDTH 722 0
DWIDTH 8 0
BBX 8 9 0 0
BITMAP
18
3c
24
66
66
7e
c3
c3
c3
ENDCHAR
STARTCHAR B
ENCODING 66
SWIDTH 722 0
DWIDTH 9 0
BBX 7 9 1 0
BITMAP
fc
c6
c6
c6
fc
c6
c6
c6
fc
ENDCHAR
STARTCHAR C
ENCODING 67
SWIDTH 722 0
DWIDTH 8 0
BBX 7 9 1 0
BITMAP
3c
66
c0
c0
c0
c0
c0
66
3c
ENDCHAR
STARTCHAR D
ENCODING 68
SWIDTH 722 0
DWIDTH 9 0
BBX 7 9 1 0
BITMAP
f8
cc
c6
c6
c6
c6
c6
cc
f8
ENDCHAR
STARTCHAR E
ENCODING 69
SWIDTH 667 0
DWIDTH 8 0
BBX 6 9 1 0
BITMAP
fc
c0
c0
c0
fc
c0
c0
c0
fc
ENDCHAR
STARTCHAR F
ENCODING 70
SWIDTH 611 0
DWIDTH 7 0
BBX 6 9 1 0
BITMAP
fc
c0
c0
c0
f8
c0
c0
c0
c0
ENDCHAR
STARTCHAR G
ENCODING 71
SWIDTH 778 0
DWIDTH 10 0
BBX 8 9 1 0
BITMAP
3e
63
c0
c0
cf
c3
c3
63
3d
ENDCHAR
STARTCHAR H
ENCODING 72
SWIDTH 722 0
DWIDTH 9 0
BBX 7 9 1 0
BITMAP
c6
c6
c6
c6
fe
c6
c6
c6
c6
ENDCHAR
STARTCHAR I
ENCODING 73
SWIDTH 278 0
DWIDTH 4 0
BBX 2 9 1 0
BITMAP
c0
c0
c0
c0
c0
c0
c0
c0
c0
ENDCHAR
STARTCHAR J
ENCODING 74
SWIDTH 556 0
DWIDTH 7 0
BBX 6 9 0 0
BITMAP
0c
0c
0c
0c
0c
0c
cc
cc
78
ENDCHAR
STARTCHAR K
ENCODING 75
SWIDTH 722 0
DWIDTH 9 0
BBX 8 9 1 0
BITMAP
c6
cc
d8
f0
f0
d8
cc
c6
c3
ENDCHAR
STARTCHAR L
ENCODING 76
SWIDTH 611 0
DWIDTH 7 0
BBX 6 9 1 0
BITMAP
c0
c0
c0
c0
c0
c0
c0
c0
fc
ENDCHAR
STARTCHAR M
ENCODING 77
SWIDTH 833 0
DWIDTH 11 0
BBX 9 9 1 0
BITMAP
c180
c180
e380
e380
f780
d580
dd80
c980
c980
ENDCHAR
STARTCHAR N
ENCODING 78
SWIDTH 722 0
DWIDTH 9 0
BBX 7 9 1 0
BITMAP
c6
e6
e6
d6
d6
ce
ce
c6
c6
ENDCHAR
STARTCHAR O
ENCODING 79
SWIDTH 778 0
DWIDTH 10 0
BBX 8 9 1 0
BITMAP
3c
66
c3
c3
c3
c3
c3
66
3c
ENDCHAR
STARTCHAR P
ENCODING 80
SWIDTH 667 0
DWIDTH 8 0
BBX 7 9 1 0
BITMAP
fc
c6
c6
c6
fc
c0
c0
c0
c0
ENDCHAR
STARTCHAR Q
ENCODING 81
SWIDTH 778 0
DWIDTH 10 0
BBX 8 9 1 0
BITMAP
3c
66
c3
c3
c3
cb
cf
66
3f
ENDCHAR
STARTCHAR R
ENCODING 82
SWIDTH 722 0
DWIDTH 9 0
BBX 7 9 1 0
BITMAP
fc
c6
c6
c6
fc
cc
c6
c6
c6
ENDCHAR
STARTCHAR S
ENCODING 83
SWIDTH 667 0
DWIDTH 9 0
BBX 7 9 1 0
BITMAP
7c
c6
c6
70
1c
0e
c6
c6
7c
ENDCHAR
STARTCHAR T
ENCODING 84
SWIDTH 611 0
DWIDTH 8 0
BBX 8 9 0 0
BITMAP
ff
18
18
18
18
18
18
18
18
ENDCHAR
STARTCHAR U
ENCODING 85
SWIDTH 722 0
DWIDTH 9 0
BBX 7 9 1 0
BITMAP
c6
c6
c6
c6
c6
c6
c6
6c
7c
ENDCHAR
STARTCHAR V
ENCODING 86
SWIDTH 667 0
DWIDTH 8 0
BBX 8 9 0 0
BITMAP
c3
c3
66
66
66
24
3c
18
18
ENDCHAR
STARTCHAR W
ENCODING 87
SWIDTH 944 0
DWIDTH 10 0
BBX 10 9 0 0
BITMAP
ccc0
ccc0
ccc0
4c80
6d80
6d80
3300
3300
3300
ENDCHAR
STARTCHAR X
ENCODING 88
SWIDTH 667 0
DWIDTH 8 0
BBX 8 9 0 0
BITMAP
c3
c3
66
3c
18
3c
66
c3
c3
ENDCHAR
STARTCHAR Y
ENCODING 89
SWIDTH 667 0
DWIDTH 8 0
BBX 8 9 0 0
BITMAP
c3
c3
66
66
3c
18
18
18
18
ENDCHAR
STARTCHAR Z
ENCODING 90
SWIDTH 611 0
DWIDTH 7 0
BBX 7 9 0 0
BITMAP
fe
06
0c
18
30
30
60
c0
fe
ENDCHAR
STARTCHAR bracketleft
ENCODING 91
SWIDTH 333 0
DWIDTH 4 0
BBX 3 12 1 -3
BITMAP
e0
c0
c0
c0
c0
c0
c0
c0
c0
c0
c0
e0
ENDCHAR
STARTCHAR backslash
ENCODING 92
SWIDTH 278 0
DWIDTH 4 0
BBX 4 9 0 0
BITMAP
c0
c0
40
60
60
20
20
30
30
ENDCHAR
STARTCHAR bracketright
ENCODING 93
SWIDTH 333 0
DWIDTH 4 0
BBX 3 12 0 -3
BITMAP
e0
60
60
60
60
60
60
60
60
60
60
e0
ENDCHAR
STARTCHAR asciicircum
ENCODING 94
SWIDTH 584 0
DWIDTH 7 0
BBX 7 4 0 5
BITMAP
10
38
6c
c6
ENDCHAR
STARTCHAR underscore
ENCODING 95
SWIDTH 556 0
DWIDTH 7 0
BBX 7 1 0 -3
BITMAP
fe
ENDCHAR
STARTCHAR grave
ENCODING 96
SWIDTH 333 0
DWIDTH 4 0
BBX 3 2 0 8
BITMAP
c0
60
ENDCHAR
STARTCHAR a
ENCODING 97
SWIDTH 556 0
DWIDTH 7 0
BBX 7 7 0 0
BITMAP
78
cc
0c
7c
cc
cc
76
ENDCHAR
STARTCHAR b
ENCODING 98
SWIDTH 611 0
DWIDTH 7 0
BBX 6 9 0 0
BITMAP
c0
c0
d8
ec
cc
cc
cc
ec
d8
ENDCHAR
STARTCHAR c
ENCODING 99
SWIDTH 556 0
DWIDTH 7 0
BBX 6 7 0 0
BITMAP
78
cc
c0
c0
c0
cc
78
ENDCHAR
STARTCHAR d
ENCODING 100
SWIDTH 611 0
DWIDTH 7 0
BBX 6 9 0 0
BITMAP
0c
0c
6c
dc
cc
cc
cc
dc
6c
ENDCHAR
STARTCHAR e
ENCODING 101
SWIDTH 556 0
DWIDTH 7 0
BBX 6 7 0 0
BITMAP
78
cc
cc
fc
c0
cc
78
ENDCHAR
STARTCHAR f
ENCODING 102
SWIDTH 333 0
DWIDTH 5 0
BBX 5 9 0 0
BITMAP
38
60
f0
60
60
60
60
60
60
ENDCHAR
STARTCHAR g
ENCODING 103
SWIDTH 611 0
DWIDTH 7 0
BBX 6 10 0 -3
BITMAP
6c
dc
cc
cc
cc
dc
6c
0c
cc
78
ENDCHAR
STARTCHAR h
ENCODING 104
SWIDTH 611 0
DWIDTH 7 0
BBX 6 9 0 0
BITMAP
c0
c0
d8
ec
cc
cc
cc
cc
cc
ENDCHAR
STARTCHAR i
ENCODING 105
SWIDTH 278 0
DWIDTH 3 0
BBX 2 9 0 0
BITMAP
c0
00
c0
c0
c0
c0
c0
c0
c0
ENDCHAR
STARTCHAR j
ENCODING 106
SWIDTH 278 0
DWIDTH 3 0
BBX 3 12 -1 -3
BITMAP
60
00
60
60
60
60
60
60
60
60
60
c0
ENDCHAR
STARTCHAR k
ENCODING 107
SWIDTH 556 0
DWIDTH 7 0
BBX 7 9 0 0
BITMAP
c0
c0
cc
d8
f0
f0
d8
cc
c6
ENDCHAR
STARTCHAR l
ENCODING 108
SWIDTH 278 0
DWIDTH 3 0
BBX 2 9 0 0
BITMAP
c0
c0
c0
c0
c0
c0
c0
c0
c0
ENDCHAR
STARTCHAR m
ENCODING 109
SWIDTH 889 0
DWIDTH 11 0
BBX 10 7 0 0
BITMAP
bb80
ccc0
ccc0
ccc0
ccc0
ccc0
ccc0
ENDCHAR
STARTCHAR n
ENCODING 110
SWIDTH 611 0
DWIDTH 7 0
BBX 6 7 0 0
BITMAP
d8
ec
cc
cc
cc
cc
cc
ENDCHAR
STARTCHAR o
ENCODING 111
SWIDTH 611 0
DWIDTH 7 0
BBX 6 7 0 0
BITMAP
78
cc
cc
cc
cc
cc
78
ENDCHAR
STARTCHAR p
ENCODING 112
SWIDTH 611 0
DWIDTH 7 0
BBX 6 10 0 -3
BITMAP
d8
ec
cc
cc
cc
ec
d8
c0
c0
c0
ENDCHAR
STARTCHAR q
ENCODING 113
SWIDTH 611 0
DWIDTH 7 0
BBX 6 10 0 -3
BITMAP
74
dc
cc
cc
cc
dc
6c
0c
0c
0c
ENDCHAR
STARTCHAR r
ENCODING 114
SWIDTH 389 0
DWIDTH 5 0
BBX 5 7 0 0
BITMAP
d8
f8
e0
c0
c0
c0
c0
ENDCHAR
STARTCHAR s
ENCODING 115
SWIDTH 556 0
DWIDTH 7 0
BBX 6 7 0 0
BITMAP
78
cc
e0
38
1c
cc
78
ENDCHAR
STARTCHAR t
ENCODING 116
SWIDTH 333 0
DWIDTH 5 0
BBX 5 9 0 0
BITMAP
60
60
f0
60
60
60
60
68
30
ENDCHAR
STARTCHAR u
ENCODING 117
SWIDTH 611 0
DWIDTH 7 0
BBX 6 7 0 0
BITMAP
cc
cc
cc
cc
cc
dc
6c
ENDCHAR
STARTCHAR v
ENCODING 118
SWIDTH 556 0
DWIDTH 8 0
BBX 7 7 0 0
BITMAP
c6
c6
6c
6c
38
38
10
ENDCHAR
STARTCHAR w
ENCODING 119
SWIDTH 778 0
DWIDTH 11 0
BBX 10 7 0 0
BITMAP
ccc0
ccc0
6d80
6d80
6d80
3300
3300
ENDCHAR
STARTCHAR x
ENCODING 120
SWIDTH 556 0
DWIDTH 7 0
BBX 6 7 0 0
BITMAP
cc
cc
78
30
78
cc
cc
ENDCHAR
STARTCHAR y
ENCODING 121
SWIDTH 556 0
DWIDTH 8 0
BBX 7 10 0 -3
BITMAP
c6
c6
6c
6c
38
38
18
10
30
60
ENDCHAR
STARTCHAR z
ENCODING 122
SWIDTH 500 0
DWIDTH 6 0
BBX 5 7 0 0
BITMAP
f8
18
30
20
60
c0
f8
ENDCHAR
STARTCHAR braceleft
ENCODING 123
SWIDTH 389 0
DWIDTH 5 0
BBX 4 12 0 -3
BITMAP
30
60
60
60
60
c0
60
60
60
60
60
30
ENDCHAR
STARTCHAR bar
ENCODING 124
SWIDTH 280 0
DWIDTH 4 0
BBX 2 12 1 -3
BITMAP
c0
c0
c0
c0
c0
c0
c0
c0
c0
c0
c0
c0
ENDCHAR
STARTCHAR braceright
ENCODING 125
SWIDTH 389 0
DWIDTH 5 0
BBX 4 12 0 -3
BITMAP
c0
60
60
60
60
30
60
60
60
60
60
c0
ENDCHAR
STARTCHAR asciitilde
ENCODING 126
SWIDTH 584 0
DWIDTH 7 0
BBX 7 2 0 3
BITMAP
76
dc
ENDCHAR
STARTCHAR nobreakspace
ENCODING 160
SWIDTH 278 0
DWIDTH 4 0
BBX 1 1 0 0
BITMAP
00
ENDCHAR
STARTCHAR Aogonek
ENCODING 161
SWIDTH 722 0
DWIDTH 8 0
BBX 8 13 0 -4
BITMAP
18
3c
24
66
66
7e
c3
c3
c3
18
30
30
1c
ENDCHAR
STARTCHAR breve
ENCODING 162
SWIDTH 333 0
DWIDTH 5 0
BBX 5 2 0 8
BITMAP
88
70
ENDCHAR
STARTCHAR Lstroke
ENCODING 163
SWIDTH 611 0
DWIDTH 8 0
BBX 7 9 0 0
BITMAP
60
60
78
70
e0
60
60
60
7e
ENDCHAR
STARTCHAR currency
ENCODING 164
SWIDTH 556 0
DWIDTH 7 0
BBX 6 6 0 1
BITMAP
cc
78
48
48
78
cc
ENDCHAR
STARTCHAR Lcaron
ENCODING 165
SWIDTH 611 0
DWIDTH 7 0
BBX 6 10 1 0
BITMAP
18
c8
d0
c0
c0
c0
c0
c0
c0
fc
ENDCHAR
STARTCHAR Sacute
ENCODING 166
SWIDTH 667 0
DWIDTH 9 0
BBX 7 12 1 0
BITMAP
0c
18
00
7c
c6
c6
70
1c
0e
c6
c6
7c
ENDCHAR
STARTCHAR section
ENCODING 167
SWIDTH 556 0
DWIDTH 7 0
BBX 6 12 0 -3
BITMAP
78
cc
e0
70
d8
cc
cc
6c
38
1c
cc
78
ENDCHAR
STARTCHAR diaeresis
ENCODING 168
SWIDTH 333 0
DWIDTH 5 0
BBX 5 1 0 8
BITMAP
d8
ENDCHAR
STARTCHAR Scaron
ENCODING 169
SWIDTH 667 0
DWIDTH 9 0
BBX 7 12 1 0
BITMAP
6c
38
00
7c
c6
c6
70
1c
0e
c6
c6
7c
ENDCHAR
STARTCHAR Scedilla
ENCODING 170
SWIDTH 667 0
DWIDTH 9 0
BBX 7 13 1 -4
BITMAP
7c
c6
c6
70
1c
0e
c6
c6
7c
18
0c
0c
38
ENDCHAR
STARTCHAR Tcaron
ENCODING 171
SWIDTH 611 0
DWIDTH 8 0
BBX 8 12 0 0
BITMAP
6c
38
00
ff
18
18
18
18
18
18
18
18
ENDCHAR
STARTCHAR Zacute
ENCODING 172
SWIDTH 611 0
DWIDTH 7 0
BBX 7 12 0 0
BITMAP
0c
18
00
fe
06
0c
18
30
30
60
c0
fe
ENDCHAR
STARTCHAR hyphen
ENCODING 173
SWIDTH 333 0
DWIDTH 5 0
BBX 4 1 0 3
BITMAP
f0
ENDCHAR
STARTCHAR Zcaron
ENCODING 174
SWIDTH 611 0
DWIDTH 7 0
BBX 7 12 0 0
BITMAP
6c
38
00
fe
06
0c
18
30
30
60
c0
fe
ENDCHAR
STARTCHAR Zabovedot
ENCODING 175
SWIDTH 611 0
DWIDTH 7 0
BBX 7 11 0 0
BITMAP
18
00
fe
06
0c
18
30
30
60
c0
fe
ENDCHAR
STARTCHAR degree
ENCODING 176
SWIDTH 400 0
DWIDTH 5 0
BBX 4 4 0 4
BITMAP
60
90
90
60
ENDCHAR
STARTCHAR aogonek
ENCODING 177
SWIDTH 556 0
DWIDTH 7 0
BBX 7 11 0 -4
BITMAP
78
cc
0c
7c
cc
cc
76
18
30
30
1c
ENDCHAR
STARTCHAR ogonek
ENCODING 178
SWIDTH 333 0
DWIDTH 4 0
BBX 4 4 0 -3
BITMAP
60
c0
c0
70
ENDCHAR
STARTCHAR lstroke
ENCODING 179
SWIDTH 278 0
DWIDTH 3 0
BBX 4 9 -1 0
BITMAP
60
60
70
60
e0
60
60
60
60
ENDCHAR
STARTCHAR acute
ENCODING 180
SWIDTH 333 0
DWIDTH 4 0
BBX 3 2 0 8
BITMAP
60
c0
ENDCHAR
STARTCHAR lcaron
ENCODING 181
SWIDTH 480 0
DWIDTH 6 0
BBX 5 10 0 0
BITMAP
18
c8
d0
c0
c0
c0
c0
c0
c0
c0
ENDCHAR
STARTCHAR sacute
ENCODING 182
SWIDTH 556 0
DWIDTH 7 0
BBX 6 10 0 0
BITMAP
18
30
00
78
cc
e0
38
1c
cc
78
ENDCHAR
STARTCHAR caron
ENCODING 183
SWIDTH 333 0
DWIDTH 5 0
BBX 5 2 0 8
BITMAP
d8
70
ENDCHAR
STARTCHAR cedilla
ENCODING 184
SWIDTH 333 0
DWIDTH 4 0
BBX 4 4 0 -3
BITMAP
60
30
30
e0
ENDCHAR
STARTCHAR scaron
ENCODING 185
SWIDTH 556 0
DWIDTH 7 0
BBX 6 10 0 0
BITMAP
d8
70
00
78
cc
e0
38
1c
cc
78
ENDCHAR
STARTCHAR scedilla
ENCODING 186
SWIDTH 556 0
DWIDTH 7 0
BBX 6 11 0 -4
BITMAP
78
cc
e0
38
1c
cc
78
30
18
18
70
ENDCHAR
STARTCHAR tcaron
ENCODING 187
SWIDTH 480 0
DWIDTH 6 0
BBX 6 11 0 0
BITMAP
0c
04
68
60
f0
60
60
60
60
68
30
ENDCHAR
STARTCHAR zacute
ENCODING 188
SWIDTH 500 0
DWIDTH 6 0
BBX 5 10 0 0
BITMAP
18
30
00
f8
18
30
20
60
c0
f8
ENDCHAR
STARTCHAR doubleacute
ENCODING 189
SWIDTH 333 0
DWIDTH 5 0
BBX 5 2 1 8
BITMAP
68
b0
ENDCHAR
STARTCHAR zcaron
ENCODING 190
SWIDTH 500 0
DWIDTH 6 0
BBX 5 10 0 0
BITMAP
d8
70
00
f8
18
30
20
60
c0
f8
ENDCHAR
STARTCHAR zabovedot
ENCODING 191
SWIDTH 500 0
DWIDTH 6 0
BBX 5 9 0 0
BITMAP
30
00
f8
18
30
20
60
c0
f8
ENDCHAR
STARTCHAR Racute
ENCODING 192
SWIDTH 722 0
DWIDTH 9 0
BBX 7 12 1 0
BITMAP
0c
18
00
fc
c6
c6
c6
fc
cc
c6
c6
c6
ENDCHAR
STARTCHAR Aacute
ENCODING 193
SWIDTH 722 0
DWIDTH 8 0
BBX 8 12 0 0
BITMAP
0c
18
00
18
18
3c
24
66
7e
c3
c3
c3
ENDCHAR
STARTCHAR Acircumflex
ENCODING 194
SWIDTH 722 0
DWIDTH 8 0
BBX 8 12 0 0
BITMAP
1c
36
00
18
18
3c
24
66
7e
c3
c3
c3
ENDCHAR
STARTCHAR Abreve
ENCODING 195
SWIDTH 722 0
DWIDTH 8 0
BBX 8 12 0 0
BITMAP
44
38
00
18
3c
24
66
66
7e
c3
c3
c3
ENDCHAR
STARTCHAR Adiaeresis
ENCODING 196
SWIDTH 722 0
DWIDTH 8 0
BBX 8 11 0 0
BITMAP
36
00
18
18
3c
24
66
7e
c3
c3
c3
ENDCHAR
STARTCHAR Lacute
ENCODING 197
SWIDTH 611 0
DWIDTH 7 0
BBX 6 12 1 0
BITMAP
60
c0
00
c0
c0
c0
c0
c0
c0
c0
c0
fc
ENDCHAR
STARTCHAR Cacute
ENCODING 198
SWIDTH 722 0
DWIDTH 8 0
BBX 7 12 1 0
BITMAP
0c
18
00
3c
66
c0
c0
c0
c0
c0
66
3c
ENDCHAR
STARTCHAR Ccedilla
ENCODING 199
SWIDTH 722 0
DWIDTH 8 0
BBX 7 12 1 -3
BITMAP
3c
66
c0
c0
c0
c0
c0
66
3c
18
18
70
ENDCHAR
STARTCHAR Ccaron
ENCODING 200
SWIDTH 722 0
DWIDTH 8 0
BBX 7 12 1 0
BITMAP
6c
38
00
3c
66
c0
c0
c0
c0
c0
66
3c
ENDCHAR
STARTCHAR Eacute
ENCODING 201
SWIDTH 667 0
DWIDTH 8 0
BBX 6 12 1 0
BITMAP
18
30
00
fc
c0
c0
c0
fc
c0
c0
c0
fc
ENDCHAR
STARTCHAR Eogonek
ENCODING 202
SWIDTH 667 0
DWIDTH 8 0
BBX 6 13 1 -4
BITMAP
fc
c0
c0
c0
fc
c0
c0
c0
fc
30
60
60
38
ENDCHAR
STARTCHAR Ediaeresis
ENCODING 203
SWIDTH 667 0
DWIDTH 8 0
BBX 6 11 1 0
BITMAP
6c
00
fc
c0
c0
c0
fc
c0
c0
c0
fc
ENDCHAR
STARTCHAR Ecaron
ENCODING 204
SWIDTH 667 0
DWIDTH 8 0
BBX 6 12 1 0
BITMAP
d8
70
00
fc
c0
c0
c0
fc
c0
c0
c0
fc
ENDCHAR
STARTCHAR Iacute
ENCODING 205
SWIDTH 278 0
DWIDTH 4 0
BBX 3 12 1 0
BITMAP
60
c0
00
c0
c0
c0
c0
c0
c0
c0
c0
c0
ENDCHAR
STARTCHAR Icircumflex
ENCODING 206
SWIDTH 278 0
DWIDTH 4 0
BBX 5 12 0 0
BITMAP
70
d8
00
60
60
60
60
60
60
60
60
60
ENDCHAR
STARTCHAR Dcaron
ENCODING 207
SWIDTH 722 0
DWIDTH 9 0
BBX 7 12 1 0
BITMAP
d8
70
00
f8
cc
c6
c6
c6
c6
c6
cc
f8
ENDCHAR
STARTCHAR Dstroke
ENCODING 208
SWIDTH 722 0
DWIDTH 9 0
BBX 8 9 0 0
BITMAP
7c
66
63
63
f3
63
63
66
7c
ENDCHAR
STARTCHAR Nacute
ENCODING 209
SWIDTH 722 0
DWIDTH 9 0
BBX 7 12 1 0
BITMAP
0c
18
00
c6
e6
e6
d6
d6
ce
ce
c6
c6
ENDCHAR
STARTCHAR Ncaron
ENCODING 210
SWIDTH 722 0
DWIDTH 9 0
BBX 7 12 1 0
BITMAP
6c
38
00
c6
e6
e6
d6
d6
ce
ce
c6
c6
ENDCHAR
STARTCHAR Oacute
ENCODING 211
SWIDTH 778 0
DWIDTH 10 0
BBX 8 12 1 0
BITMAP
0c
18
00
3c
66
c3
c3
c3
c3
c3
66
3c
ENDCHAR
STARTCHAR Ocircumflex
ENCODING 212
SWIDTH 778 0
DWIDTH 10 0
BBX 8 12 1 0
BITMAP
1c
36
00
3c
66
c3
c3
c3
c3
c3
66
3c
ENDCHAR
STARTCHAR Odoubleacute
ENCODING 213
SWIDTH 778 0
DWIDTH 10 0
BBX 8 12 1 0
BITMAP
1a
2c
00
3c
66
c3
c3
c3
c3
c3
66
3c
ENDCHAR
STARTCHAR Odiaeresis
ENCODING 214
SWIDTH 778 0
DWIDTH 10 0
BBX 8 11 1 0
BITMAP
66
00
3c
66
c3
c3
c3
c3
c3
66
3c
ENDCHAR
STARTCHAR multiply
ENCODING 215
SWIDTH 584 0
DWIDTH 7 0
BBX 6 5 0 1
BITMAP
cc
78
30
78
cc
ENDCHAR
STARTCHAR Rcaron
ENCODING 216
SWIDTH 722 0
DWIDTH 9 0
BBX 7 12 1 0
BITMAP
6c
38
00
fc
c6
c6
c6
fc
cc
c6
c6
c6
ENDCHAR
STARTCHAR Uring
ENCODING 217
SWIDTH 722 0
DWIDTH 9 0
BBX 7 13 1 0
BITMAP
38
6c
38
00
c6
c6
c6
c6
c6
c6
c6
6c
7c
ENDCHAR
STARTCHAR Uacute
ENCODING 218
SWIDTH 722 0
DWIDTH 9 0
BBX 7 12 1 0
BITMAP
0c
18
00
c6
c6
c6
c6
c6
c6
c6
6c
7c
ENDCHAR
STARTCHAR Udoubleacute
ENCODING 219
SWIDTH 722 0
DWIDTH 9 0
BBX 7 12 1 0
BITMAP
1a
2c
00
c6
c6
c6
c6
c6
c6
c6
6c
7c
ENDCHAR
STARTCHAR Udiaeresis
ENCODING 220
SWIDTH 722 0
DWIDTH 9 0
BBX 7 11 1 0
BITMAP
6c
00
c6
c6
c6
c6
c6
c6
c6
6c
7c
ENDCHAR
STARTCHAR Yacute
ENCODING 221
SWIDTH 667 0
DWIDTH 8 0
BBX 8 12 0 0
BITMAP
0c
18
00
c3
c3
66
66
24
3c
18
18
18
ENDCHAR
STARTCHAR Tcedilla
ENCODING 222
SWIDTH 611 0
DWIDTH 8 0
BBX 8 13 0 -4
BITMAP
ff
18
18
18
18
18
18
18
18
18
0c
0c
38
ENDCHAR
STARTCHAR ssharp
ENCODING 223
SWIDTH 611 0
DWIDTH 8 0
BBX 6 9 1 0
BITMAP
78
cc
cc
cc
d8
cc
cc
cc
d8
ENDCHAR
STARTCHAR racute
ENCODING 224
SWIDTH 389 0
DWIDTH 5 0
BBX 5 10 0 0
BITMAP
18
30
00
d8
f8
e0
c0
c0
c0
c0
ENDCHAR
STARTCHAR aacute
ENCODING 225
SWIDTH 556 0
DWIDTH 7 0
BBX 7 10 0 0
BITMAP
18
30
00
78
cc
0c
7c
cc
cc
76
ENDCHAR
STARTCHAR acircumflex
ENCODING 226
SWIDTH 556 0
DWIDTH 7 0
BBX 7 10 0 0
BITMAP
38
6c
00
78
cc
0c
7c
cc
cc
76
ENDCHAR
STARTCHAR abreve
ENCODING 227
SWIDTH 556 0
DWIDTH 7 0
BBX 7 10 0 0
BITMAP
88
70
00
78
cc
0c
7c
cc
cc
76
ENDCHAR
STARTCHAR adiaeresis
ENCODING 228
SWIDTH 556 0
DWIDTH 7 0
BBX 7 9 0 0
BITMAP
6c
00
78
cc
0c
7c
cc
cc
76
ENDCHAR
STARTCHAR lacute
ENCODING 229
SWIDTH 278 0
DWIDTH 3 0
BBX 3 12 0 0
BITMAP
60
c0
00
c0
c0
c0
c0
c0
c0
c0
c0
c0
ENDCHAR
STARTCHAR cacute
ENCODING 230
SWIDTH 556 0
DWIDTH 7 0
BBX 6 10 0 0
BITMAP
18
30
00
78
cc
c0
c0
c0
cc
78
ENDCHAR
STARTCHAR ccedilla
ENCODING 231
SWIDTH 556 0
DWIDTH 7 0
BBX 6 10 0 -3
BITMAP
78
cc
c0
c0
c0
cc
78
10
18
70
ENDCHAR
STARTCHAR ccaron
ENCODING 232
SWIDTH 556 0
DWIDTH 7 0
BBX 6 10 0 0
BITMAP
d8
70
00
78
cc
c0
c0
c0
cc
78
ENDCHAR
STARTCHAR eacute
ENCODING 233
SWIDTH 556 0
DWIDTH 7 0
BBX 6 10 0 0
BITMAP
18
30
00
78
cc
cc
fc
c0
cc
78
ENDCHAR
STARTCHAR eogonek
ENCODING 234
SWIDTH 556 0
DWIDTH 7 0
BBX 6 11 0 -4
BITMAP
78
cc
cc
fc
c0
cc
78
30
60
60
38
ENDCHAR
STARTCHAR ediaeresis
ENCODING 235
SWIDTH 556 0
DWIDTH 7 0
BBX 6 9 0 0
BITMAP
6c
00
78
cc
cc
fc
c0
cc
78
ENDCHAR
STARTCHAR ecaron
ENCODING 236
SWIDTH 556 0
DWIDTH 7 0
BBX 6 10 0 0
BITMAP
d8
70
00
78
cc
cc
fc
c0
cc
78
ENDCHAR
STARTCHAR iacute
ENCODING 237
SWIDTH 278 0
DWIDTH 3 0
BBX 3 10 0 0
BITMAP
60
c0
00
c0
c0
c0
c0
c0
c0
c0
ENDCHAR
STARTCHAR icircumflex
ENCODING 238
SWIDTH 278 0
DWIDTH 3 0
BBX 5 10 -1 0
BITMAP
70
d8
00
60
60
60
60
60
60
60
ENDCHAR
STARTCHAR dcaron
ENCODING 239
SWIDTH 800 0
DWIDTH 10 0
BBX 9 10 0 0
BITMAP
0180
0c80
0d00
6c00
dc00
cc00
cc00
cc00
dc00
6c00
ENDCHAR
STARTCHAR dstroke
ENCODING 240
SWIDTH 720 0
DWIDTH 9 0
BBX 8 9 0 0
BITMAP
3f
0c
6c
dc
cc
cc
cc
dc
6c
ENDCHAR
STARTCHAR nacute
ENCODING 241
SWIDTH 611 0
DWIDTH 7 0
BBX 6 10 0 0
BITMAP
18
30
00
d8
ec
cc
cc
cc
cc
cc
ENDCHAR
STARTCHAR ncaron
ENCODING 242
SWIDTH 611 0
DWIDTH 7 0
BBX 6 10 0 0
BITMAP
d8
70
00
d8
ec
cc
cc
cc
cc
cc
ENDCHAR
STARTCHAR oacute
ENCODING 243
SWIDTH 611 0
DWIDTH 7 0
BBX 6 10 0 0
BITMAP
18
30
00
78
cc
cc
cc
cc
cc
78
ENDCHAR
STARTCHAR ocircumflex
ENCODING 244
SWIDTH 611 0
DWIDTH 7 0
BBX 6 10 0 0
BITMAP
38
6c
00
78
cc
cc
cc
cc
cc
78
ENDCHAR
STARTCHAR odoubleacute
ENCODING 245
SWIDTH 611 0
DWIDTH 7 0
BBX 6 10 0 0
BITMAP
34
58
00
78
cc
cc
cc
cc
cc
78
ENDCHAR
STARTCHAR odiaeresis
ENCODING 246
SWIDTH 611 0
DWIDTH 7 0
BBX 6 9 0 0
BITMAP
6c
00
78
cc
cc
cc
cc
cc
78
ENDCHAR
STARTCHAR division
ENCODING 247
SWIDTH 584 0
DWIDTH 7 0
BBX 6 5 0 1
BITMAP
30
00
fc
00
30
ENDCHAR
STARTCHAR rcaron
ENCODING 248
SWIDTH 389 0
DWIDTH 5 0
BBX 5 10 0 0
BITMAP
d8
70
00
d8
f8
e0
c0
c0
c0
c0
ENDCHAR
STARTCHAR uring
ENCODING 249
SWIDTH 611 0
DWIDTH 7 0
BBX 6 11 0 0
BITMAP
70
d8
70
00
cc
cc
cc
cc
cc
dc
6c
ENDCHAR
STARTCHAR uacute
ENCODING 250
SWIDTH 611 0
DWIDTH 7 0
BBX 6 10 0 0
BITMAP
18
30
00
cc
cc
cc
cc
cc
dc
6c
ENDCHAR
STARTCHAR udoubleacute
ENCODING 251
SWIDTH 611 0
DWIDTH 7 0
BBX 6 10 0 0
BITMAP
34
58
00
cc
cc
cc
cc
cc
dc
6c
ENDCHAR
STARTCHAR udiaeresis
ENCODING 252
SWIDTH 611 0
DWIDTH 7 0
BBX 6 9 0 0
BITMAP
6c
00
cc
cc
cc
cc
cc
dc
6c
ENDCHAR
STARTCHAR yacute
ENCODING 253
SWIDTH 556 0
DWIDTH 8 0
BBX 7 13 0 -3
BITMAP
0c
18
00
c6
c6
6c
6c
38
38
18
10
30
60
ENDCHAR
STARTCHAR tcedilla
ENCODING 254
SWIDTH 333 0
DWIDTH 5 0
BBX 5 13 0 -4
BITMAP
60
60
f0
60
60
60
60
68
30
30
18
18
70
ENDCHAR
STARTCHAR abovedot
ENCODING 255
SWIDTH 333 0
DWIDTH 4 0
BBX 2 1 1 8
BITMAP
c0
ENDCHAR
ENDFONT
